# xmcd
#
# Track frame offsets: 
#        150
#        12422
#        23189
#        36875
#        51509
#        71633
#        86249
#        101120
#        112523
#        131513
#        153378
#        161569
#        175561
#
# Disc length: 2536 seconds
#
# Revision: 0
# Processed by: cddbd v1.5.2PL0 Copyright (c) Steve Scherf et al.
# Submitted via: ExactAudioCopyFreeDBPlugin 1.0
#
DISCID=a409e60d
DTITLE=Tom Jones - Long Lost Suitcase
DYEAR=2015
DGENRE=Blues
TTITLE0=Opportunity To Cry
TTITLE1=Honey, Honey (feat. Imelda May)
TTITLE2=Take My Love ( I Want To Give It)
TTITLE3=Bring It On Home
TTITLE4=Everybody Loves A Train
TTITLE5=Elvis Presley Blues
TTITLE6=He Was A Friend Of Mine
TTITLE7=Factory Girl
TTITLE8=I Wish You Would
TTITLE9='Til My Back Ain't Got No Bone
TTITLE10=Why Don't You Love Me Like You Used To?
TTITLE11=Tomorrow Night
TTITLE12=Raise A Ruckus
EXTD=
EXTT0=
EXTT1=
EXTT2=
EXTT3=
EXTT4=
EXTT5=
EXTT6=
EXTT7=
EXTT8=
EXTT9=
EXTT10=
EXTT11=
EXTT12=
PLAYORDER=
